<svg width="186" height="35" viewBox="0 0 186 35" fill="none" xmlns="http://www.w3.org/2000/svg">
<g clip-path="url(#clip0)">
<path d="M50.6 5.1C49.2 5.1 47.6 5.6 46.5 6.9H46.4V5.5H42.8V20.4H46.4V12.5C46.4 9.8 47.8 8.6 49.6 8.6C51.5 8.6 52.1 9.9 52.1 11.3V20.4H55.7V10.2C55.7 6.9 54.1 5.1 50.6 5.1Z" fill="black"/>
<path d="M65.1 20.7C69.2 20.7 71.3 18.8 72.4 17.1L69.4 15.3C69 15.8 67.9 17.4 65.1 17.4C63.2 17.4 61.3 16 61.2 13.8H72.2C72.2 8.5 70 5.2 65.1 5.2C60.3 5.2 57.5 8.6 57.5 13C57.5 17.3 60.3 20.7 65.1 20.7ZM65.1 8C67.5 8 68.5 10.1 68.5 10.9H61.3C61.7 9.4 63 8 65.1 8Z" fill="black"/>
<path d="M93.8 5.5H90.1L87.6 15.6H87.5L84.8 5.5H81.5L78.7 15.6L76.2 5.5H72.5L76.8 20.3H80.3L83.1 10.4H83.2L86 20.3H89.5L93.8 5.5Z" fill="black"/>
<path d="M112.2 5.1C110.2 5.1 108.7 5.9 107.6 7.3C106.9 5.7 105 5.1 103.2 5.1C101.3 5.1 100 5.8 98.9 6.9V5.5H95.3V20.4H98.9V12.5C98.9 10.4 100.1 8.4 102 8.4C103.7 8.4 104.5 9.6 104.5 11.3V20.3H108.1V12.4C108.1 10.3 109.3 8.3 111.3 8.3C113 8.3 113.7 9.5 113.7 11.2V20.2H117.3V9.9C117.4 6.7 115.4 5.1 112.2 5.1Z" fill="black"/>
<path d="M140.7 0.200001H137.1V5.5H134.9V8H137.1V16.9C137.1 19.2 138.1 20.5 141 20.5C142.1 20.5 143 20.3 143.9 20.1V17.2C143.4 17.3 142.8 17.4 142.3 17.4C140.9 17.4 140.7 16.8 140.7 15.6V8H143.9V5.5H140.7V0.200001Z" fill="black"/>
<path d="M150.2 0.200001H146.6V3.8H150.2V0.200001Z" fill="black"/>
<path d="M150.2 5.5H146.6V20.4H150.2V5.5Z" fill="black"/>
<path d="M177 5.1C175.6 5.1 174 5.6 172.9 6.9H172.8V5.5H169.2V20.4H172.8V12.5C172.8 9.8 174.2 8.6 176 8.6C177.9 8.6 178.5 9.9 178.5 11.3V20.4H182.1V10.2C182.1 6.9 180.5 5.1 177 5.1Z" fill="black"/>
<path d="M127.1 5.1C122.8 5.1 119.3 8.6 119.3 12.9C119.3 17.2 122.8 20.7 127.1 20.7C131.4 20.7 134.9 17.2 134.9 12.9C134.9 8.6 131.4 5.1 127.1 5.1ZM131.6 13.6L128 17.2C127.5 17.7 126.8 18 126.2 18C125.5 18 124.9 17.7 124.4 17.2C123.9 16.7 123.6 16 123.6 15.4C123.6 14.7 123.9 14.1 124.4 13.6L124.9 13.1L124.4 12.6C123.9 12.1 123.6 11.4 123.6 10.8C123.6 10.1 123.9 9.5 124.4 9C124.9 8.5 125.6 8.2 126.2 8.2C126.9 8.2 127.5 8.5 128 9L129.2 10.2L131.6 12.6C131.8 12.8 131.9 13 131.9 13.2C131.9 13.1 131.8 13.4 131.6 13.6Z" fill="black"/>
<path d="M159.8 5.1C155.5 5.1 152 8.6 152 12.9C152 17.2 155.5 20.7 159.8 20.7C164.1 20.7 167.6 17.2 167.6 12.9C167.6 8.6 164.1 5.1 159.8 5.1ZM164.3 13.6L160.7 17.2C160.2 17.7 159.5 18 158.9 18C158.2 18 157.6 17.7 157.1 17.2C156.6 16.7 156.3 16 156.3 15.4C156.3 14.7 156.6 14.1 157.1 13.6L157.6 13.1L157.1 12.6C156.6 12.1 156.3 11.4 156.3 10.8C156.3 10.1 156.6 9.5 157.1 9C157.6 8.5 158.3 8.2 158.9 8.2C159.6 8.2 160.2 8.5 160.7 9L161.9 10.2L164.3 12.6C164.5 12.8 164.6 13 164.6 13.2C164.6 13.1 164.5 13.4 164.3 13.6Z" fill="black"/>
<path d="M184.6 5.5C183.9 5.5 183.3 6.1 183.3 6.8C183.3 7.5 183.9 8.1 184.6 8.1C185.3 8.1 185.9 7.5 185.9 6.8C185.9 6 185.3 5.5 184.6 5.5ZM184.6 7.7C184 7.7 183.6 7.2 183.6 6.7C183.6 6.2 184.1 5.7 184.6 5.7C185.1 5.7 185.6 6.2 185.6 6.7C185.6 7.2 185.2 7.7 184.6 7.7Z" fill="black"/>
<path d="M185.1 6.5C185.1 6.3 185 6.2 185 6.2C184.9 6 184.8 6 184.6 6H184.2V7.3H184.4V6.9H184.6L184.9 7.4H185.2L184.9 6.9C185 6.8 185.1 6.7 185.1 6.5ZM184.6 6.7C184.6 6.7 184.5 6.7 184.4 6.7H184.3V6.3H184.4C184.5 6.3 184.6 6.3 184.7 6.3C184.8 6.4 184.8 6.5 184.8 6.5C184.9 6.7 184.7 6.7 184.6 6.7Z" fill="black"/>
<path d="M43.8 30.9L43.2 32.3H42.6L44.9 27L47.2 32.3H46.6L46 30.9H43.8ZM44.9 28.4L44 30.4H45.7L44.9 28.4Z" fill="black"/>
<path d="M50.4 27L52.2 31.2L54 27L55 32.3H54.4L53.8 28.9L52.2 32.5L50.6 28.9L50 32.3H49.4L50.4 27Z" fill="black"/>
<path d="M56 30.9C56 31.5 56.4 31.9 57 31.9C57.5 31.9 57.7 31.6 58 31.3L58.5 31.6C58.2 32.2 57.7 32.5 57.1 32.5C56.2 32.5 55.6 31.8 55.6 30.9C55.6 30 56.1 29.2 57.1 29.2C58.1 29.2 58.6 30 58.6 31H56V30.9ZM57.9 30.4C57.8 29.9 57.4 29.6 57 29.6C56.5 29.6 56.1 30 56 30.4H57.9Z" fill="black"/>
<path d="M59.7 29.5C59.9 29.2 60.1 29.1 60.5 29.1C60.9 29.1 61.2 29.3 61.4 29.6C61.6 29.3 62 29.1 62.3 29.1C63.1 29.1 63.3 29.8 63.3 30.4V32.3H62.8V30.5C62.8 30.1 62.8 29.6 62.2 29.6C61.6 29.6 61.5 30.2 61.5 30.7V32.4H61V30.6C61 30.2 61 29.7 60.4 29.7C59.8 29.7 59.7 30.3 59.7 30.8V32.4H59.2V29.3H59.7V29.5Z" fill="black"/>
<path d="M64.2 26.8H64.7V29.6C65 29.3 65.3 29.1 65.8 29.1C66.7 29.1 67.3 29.9 67.3 30.8C67.3 31.7 66.7 32.5 65.8 32.5C65.4 32.5 65 32.3 64.7 32V32.4H64.2V26.8ZM64.7 30.7C64.7 31.3 65.1 31.9 65.7 31.9C66.4 31.9 66.7 31.3 66.7 30.7C66.7 30.1 66.3 29.6 65.6 29.6C65.1 29.6 64.7 30.1 64.7 30.7Z" fill="black"/>
<path d="M68.3 30.9C68.3 31.5 68.7 31.9 69.3 31.9C69.8 31.9 70 31.6 70.3 31.3L70.8 31.6C70.5 32.2 70 32.5 69.4 32.5C68.5 32.5 67.9 31.8 67.9 30.9C67.9 30 68.4 29.2 69.4 29.2C70.4 29.2 70.9 30 70.9 31H68.3V30.9ZM70.2 30.4C70.1 29.9 69.7 29.6 69.3 29.6C68.8 29.6 68.4 30 68.3 30.4H70.2Z" fill="black"/>
<path d="M72 29.5C72.2 29.3 72.4 29.1 72.7 29.1C72.9 29.1 73 29.2 73.2 29.2L72.9 29.7C72.8 29.6 72.7 29.6 72.6 29.6C72 29.6 72 30.4 72 30.8V32.4H71.5V29.3H72V29.5Z" fill="black"/>
<path d="M75.4 30.8C75.4 29.9 76.1 29.1 77 29.1C77.9 29.1 78.6 29.8 78.6 30.8C78.6 31.8 77.9 32.4 77 32.4C76.2 32.4 75.4 31.7 75.4 30.8ZM76 30.8C76 31.4 76.5 32 77.1 32C77.8 32 78.2 31.5 78.2 30.8C78.2 30.2 77.7 29.6 77.1 29.6C76.4 29.6 76 30.1 76 30.8Z" fill="black"/>
<path d="M80 32.3H79.5V29.7H79.2V29.2H79.5V28C79.5 27.7 79.5 27.4 79.6 27.2C79.8 26.9 80.1 26.8 80.4 26.8C80.5 26.8 80.7 26.8 80.8 26.9V27.4C80.7 27.4 80.6 27.3 80.4 27.3C80 27.3 80 27.6 80 28.2V29.3H80.8V29.8H80V32.3Z" fill="black"/>
<path d="M83.8 32.3H83.3V29.7H83V29.2H83.3V28.1H83.8V29.2H84.4V29.7H83.8V32.3Z" fill="black"/>
<path d="M85.3 26.8V29.5C85.5 29.2 85.8 29 86.2 29C87.1 29 87.3 29.6 87.3 30.4V32.3H86.8V30.5C86.8 30 86.8 29.5 86.1 29.5C85.4 29.5 85.3 30.2 85.3 30.7V32.2H84.8V26.7H85.3V26.8Z" fill="black"/>
<path d="M88.5 30.9C88.5 31.5 88.9 31.9 89.5 31.9C90 31.9 90.2 31.6 90.5 31.3L91 31.6C90.7 32.2 90.2 32.5 89.6 32.5C88.7 32.5 88.1 31.8 88.1 30.9C88.1 30 88.6 29.2 89.6 29.2C90.6 29.2 91.1 30 91.1 31H88.5V30.9ZM90.4 30.4C90.3 29.9 89.9 29.6 89.5 29.6C89 29.6 88.6 30 88.5 30.4H90.4Z" fill="black"/>
<path d="M96 28.3C95.8 28 95.6 27.8 95.1 27.8C94.7 27.8 94.3 28.1 94.3 28.6C94.3 29 94.7 29.2 95.1 29.4L95.4 29.5C96.1 29.8 96.6 30.1 96.6 30.9C96.6 31.8 95.9 32.5 95 32.5C94.2 32.5 93.6 32 93.4 31.2L93.9 31C94 31.5 94.4 31.9 94.9 31.9C95.4 31.9 95.9 31.5 95.9 30.9C95.9 30.3 95.4 30.1 95 29.9L94.7 29.8C94.1 29.5 93.6 29.2 93.6 28.5C93.6 27.7 94.3 27.2 95 27.2C95.6 27.2 96 27.5 96.3 28L96 28.3Z" fill="black"/>
<path d="M97.9 26.8V29.5C98.1 29.2 98.4 29 98.8 29C99.7 29 99.9 29.6 99.9 30.4V32.3H99.4V30.5C99.4 30 99.4 29.5 98.7 29.5C98 29.5 97.9 30.2 97.9 30.7V32.2H97.4V26.7H97.9V26.8Z" fill="black"/>
<path d="M101.1 30.9C101.1 31.5 101.5 31.9 102.1 31.9C102.6 31.9 102.8 31.6 103.1 31.3L103.6 31.6C103.3 32.2 102.8 32.5 102.2 32.5C101.3 32.5 100.7 31.8 100.7 30.9C100.7 30 101.2 29.2 102.2 29.2C103.2 29.2 103.7 30 103.7 31H101.1V30.9ZM103 30.4C102.9 29.9 102.5 29.6 102.1 29.6C101.6 29.6 101.2 30 101.1 30.4H103Z" fill="black"/>
<path d="M104.8 32.3H104.3V26.8H104.8V32.3Z" fill="black"/>
<path d="M106.2 32.3H105.7V26.8H106.2V32.3Z" fill="black"/>
<path d="M113.9 29.8C113.9 30.5 113.8 31 113.4 31.6C112.9 32.1 112.2 32.4 111.5 32.4C110.1 32.4 108.9 31.2 108.9 29.8C108.9 28.4 110.1 27.2 111.5 27.2C112.4 27.2 113.1 27.6 113.6 28.3L113.2 28.7C112.8 28.1 112.2 27.8 111.5 27.8C110.4 27.8 109.4 28.8 109.4 29.9C109.4 30.4 109.6 30.9 110 31.3C110.4 31.7 110.9 31.9 111.4 31.9C112.3 31.9 113.2 31.3 113.2 30.3H111.7V29.8H113.9Z" fill="black"/>
<path d="M115.2 29.5C115.4 29.3 115.6 29.1 115.9 29.1C116.1 29.1 116.2 29.2 116.4 29.2L116.1 29.7C116 29.6 115.9 29.6 115.8 29.6C115.2 29.6 115.2 30.4 115.2 30.8V32.4H114.7V29.3H115.2V29.5Z" fill="black"/>
<path d="M116.4 30.8C116.4 29.9 117.1 29.1 118 29.1C118.9 29.1 119.6 29.8 119.6 30.8C119.6 31.8 118.9 32.4 118 32.4C117.2 32.4 116.4 31.7 116.4 30.8ZM117 30.8C117 31.4 117.5 32 118.1 32C118.8 32 119.2 31.5 119.2 30.8C119.2 30.2 118.7 29.6 118.1 29.6C117.4 29.6 117 30.1 117 30.8Z" fill="black"/>
<path d="M120.9 30.9C120.9 31.4 121 31.9 121.6 31.9C122.2 31.9 122.3 31.4 122.3 30.9V29.2H122.8V31C122.8 31.8 122.5 32.4 121.6 32.4C120.7 32.4 120.4 31.8 120.4 31V29.2H120.9V30.9Z" fill="black"/>
<path d="M124.2 29.6C124.5 29.3 124.9 29.1 125.3 29.1C126.2 29.1 126.8 29.9 126.8 30.8C126.8 31.7 126.2 32.4 125.3 32.4C124.9 32.4 124.5 32.2 124.2 31.9V34.1H123.7V29.2H124.2V29.6ZM124.2 30.7C124.2 31.3 124.6 31.9 125.2 31.9C125.9 31.9 126.2 31.3 126.2 30.7C126.2 30.1 125.8 29.6 125.1 29.6C124.6 29.6 124.2 30.1 124.2 30.7Z" fill="black"/>
<path d="M13.5 25.5H6.5L5.8 20.3L1.5 17.2C1.3 16.3 1.2 15.4 1.2 14.4C1.2 6.8 7.4 0.5 15.1 0.5C22.8 0.6 29 6.8 29 14.5C29 15.4 28.9 16.4 28.7 17.3L24.4 20.4L23.7 25.6H16.7L16.3 25.9C15.9 26.2 15.5 26.3 15.1 26.3C14.7 26.3 14.2 26.2 13.9 25.9L13.5 25.5Z" stroke="white" stroke-width="0.9699" stroke-miterlimit="40"/>
<path d="M13.5 25.5H6.5L5.8 20.3L1.5 17.2C1.3 16.3 1.2 15.4 1.2 14.4C1.2 6.8 7.4 0.5 15.1 0.5C22.8 0.6 29 6.8 29 14.5C29 15.4 28.9 16.4 28.7 17.3L24.4 20.4L23.7 25.6H16.7L16.3 25.9C15.9 26.2 15.5 26.3 15.1 26.3C14.7 26.3 14.2 26.2 13.9 25.9L13.5 25.5Z" fill="#FBCE0A"/>
<path fill-rule="evenodd" clip-rule="evenodd" d="M13.5 25.5H6.5L5.8 20.3L1.5 17.2C1.3 16.3 1.2 15.4 1.2 14.4C1.2 6.8 7.4 0.5 15.1 0.5C22.8 0.6 29 6.8 29 14.5C29 15.4 28.9 16.4 28.7 17.3L24.4 20.4L23.7 25.6H16.7L16.3 25.9C15.9 26.2 15.5 26.3 15.1 26.3C14.7 26.3 14.2 26.2 13.9 25.9L13.5 25.5ZM13.7 23.1H8.6L8.1 19L3.9 15.9C3.8 15.4 3.7 14.9 3.7 14.4C3.7 13.6 3.9 12.8 4.2 12L11.7 19.5L4.5 10.6C4.8 9.4 5.4 8.4 6.3 7.6L12.8 18.8L7 6.6C7.7 5.6 8.8 4.9 10 4.5L14 18.4L11 3.9C11.9 3.4 12.9 3.1 13.9 3.1C14.1 3.1 14.3 3.1 14.5 3.1L15.1 18.2L15.7 3.1C15.9 3.1 16.1 3.1 16.3 3.1C17.3 3.1 18.3 3.4 19.2 3.9L16.3 18.4L20.3 4.5C21.5 4.9 22.5 5.6 23.3 6.6L17.5 18.9L24 7.7C24.9 8.5 25.5 9.5 25.8 10.7L18.6 19.6L26.1 12.1C26.4 12.9 26.6 13.7 26.6 14.5C26.6 15 26.5 15.5 26.4 16L22.2 19L21.7 23.1H16.6L15.8 23.6C15.6 23.7 15.4 23.8 15.1 23.8C14.9 23.8 14.6 23.7 14.4 23.6L13.7 23.1Z" fill="#DE1F22"/>
</g>
<defs>
<clipPath id="clip0">
<rect width="186" height="34.3" fill="white"/>
</clipPath>
</defs>
</svg>
